# xmcd CD database file
#
# Track frame offsets:
#	150
#	26755
#	54215
#	88508
#	118473
#	149365
#	178793
#	201545
#	226194
#
# Disc length: 3470 seconds
#
# Revision: 0
# Processed by: cddbd v1.5.2PL0 Copyright (c) Steve Scherf et al.
# Submitted via: CDex 1.51
#
DISCID=7f0d8c09
DTITLE=Fabio Miano Septet - Personally Speaking a tribute to Duke Pearson
DYEAR=2002
DGENRE=Jazz
TTITLE0=Make it good
TTITLE1=Los malos hombres
TTITLE2=gaslight
TTITLE3=Jeannine
TTITLE4=You know I care
TTITLE5=Big bertha
TTITLE6=Is that so?
TTITLE7=Sudel
TTITLE8=Chili peppers
EXTD=YEAR: 2002
EXTT0=
EXTT1=
EXTT2=
EXTT3=
EXTT4=
EXTT5=
EXTT6=
EXTT7=
EXTT8=
PLAYORDER=
